<?xml version="1.0" encoding="utf-8"?>
<!-- Generator: Adobe Illustrator 27.7.0, SVG Export Plug-In . SVG Version: 6.00 Build 0)  -->
<svg version="1.1"
	 id="svg17" xmlns:sodipodi="http://sodipodi.sourceforge.net/DTD/sodipodi-0.dtd" xmlns:inkscape="http://www.inkscape.org/namespaces/inkscape" xmlns:svg="http://www.w3.org/2000/svg" sodipodi:docname="logo.svg"
	 xmlns="http://www.w3.org/2000/svg" xmlns:xlink="http://www.w3.org/1999/xlink" x="0px" y="0px" viewBox="0 0 483.3 75.4"
	 style="enable-background:new 0 0 483.3 75.4;" xml:space="preserve">
<style type="text/css">
	.st0{fill:#2C59FF;}
</style>
<sodipodi:namedview  bordercolor="#000000" borderopacity="0.25" id="namedview19" inkscape:deskcolor="#d1d1d1" inkscape:pagecheckerboard="0" inkscape:pageopacity="0.0" inkscape:showpageshadow="2" pagecolor="#ffffff">
	</sodipodi:namedview>
<g id="SvgjsG2382" transform="matrix(2,0,0,2,0,-19)">
	<g id="g11" transform="translate(-270 -140)">
		<g id="g9">
			<path id="path3" class="st0" d="M286.6,173c-1.4,0-2.5,0.7-3.2,1.8c-0.3,0.5-0.5,1.2-0.5,1.8c0,2,1.7,3.7,3.7,3.7
				c2,0,3.7-1.7,3.7-3.7c0-0.7-0.2-1.3-0.5-1.8C289.2,173.7,288,173,286.6,173z"/>
			<path id="path5" class="st0" d="M312.5,173c-1.4,0-2.5,0.7-3.2,1.8c-0.3,0.5-0.5,1.2-0.5,1.8c0,2,1.7,3.7,3.7,3.7
				c2,0,3.7-1.7,3.7-3.7c0-0.7-0.2-1.3-0.5-1.8C315,173.7,313.9,173,312.5,173z"/>
			<path id="path7" class="st0" d="M323.6,169.3v-1.8l-11.1-3.2l-12.9-7.9h-20.3v1.8h11.1v1.8H270v1.8h22.2v1.8h-18.5v1.8h9.2v1.8
				h-3.7v1.8h-7.4v1.8h9.2v1.8h-1.8v1.8h-5.5v1.8h7.4c0-0.7,0.1-1.3,0.3-1.8c0.8-2.1,2.8-3.7,5.2-3.7c2.4,0,4.4,1.5,5.2,3.7
				c0.2,0.6,0.3,1.2,0.3,1.8H307c0-0.7,0.1-1.3,0.3-1.8c0.8-2.1,2.8-3.7,5.2-3.7c2.4,0,4.4,1.5,5.2,3.7c0.2,0.6,0.3,1.2,0.3,1.8h5.5
				v-1.8h1.8v-5.5H323.6z"/>
		</g>
	</g>
</g>
<g>
	<path class="st0" d="M142.5,41.5l9-27.8h13.4l-15.2,47h-14.4l-15.2-47h13.4L142.5,41.5z"/>
	<path class="st0" d="M191.9,26.4l-0.7,11.4c-0.5-0.2-1.1-0.3-1.7-0.3c-1.8,0-3.3,0.3-4.7,1c-1.3,0.7-2.3,1.6-3,2.7
		c-0.7,1.1-1,2.3-1,3.5v15.8h-12.1V27.1h12.1v5.3c0.8-1.7,2-3.1,3.8-4.2c1.8-1.2,3.9-1.7,6.4-1.7H191.9z"/>
	<path class="st0" d="M202.4,59.3c-2.7-1.6-4.9-3.7-6.5-6.5c-1.6-2.7-2.4-5.7-2.4-8.9s0.8-6.2,2.4-8.9c1.6-2.7,3.7-4.9,6.5-6.5
		c2.7-1.6,5.7-2.4,8.9-2.4c3.2,0,6.2,0.8,8.9,2.4c2.7,1.6,4.9,3.7,6.5,6.5c1.6,2.7,2.4,5.7,2.4,8.9s-0.8,6.2-2.4,8.9
		c-1.6,2.7-3.7,4.9-6.5,6.5c-2.7,1.6-5.7,2.4-8.9,2.4C208.1,61.7,205.2,60.9,202.4,59.3z M215.4,47.9c1.1-1.1,1.7-2.5,1.7-4
		c0-1.6-0.6-2.9-1.7-4c-1.1-1.1-2.5-1.7-4-1.7c-1.6,0-2.9,0.6-4,1.7c-1.1,1.1-1.7,2.5-1.7,4c0,1.6,0.6,2.9,1.7,4
		c1.1,1.1,2.5,1.7,4,1.7C212.9,49.6,214.3,49.1,215.4,47.9z"/>
	<path class="st0" d="M240.7,59.3c-2.7-1.6-4.9-3.7-6.5-6.5c-1.6-2.7-2.4-5.7-2.4-8.9s0.8-6.2,2.4-8.9c1.6-2.7,3.7-4.9,6.5-6.5
		c2.7-1.6,5.7-2.4,8.9-2.4c3.2,0,6.2,0.8,8.9,2.4c2.7,1.6,4.9,3.7,6.5,6.5c1.6,2.7,2.4,5.7,2.4,8.9s-0.8,6.2-2.4,8.9
		c-1.6,2.7-3.7,4.9-6.5,6.5c-2.7,1.6-5.7,2.4-8.9,2.4C246.4,61.7,243.4,60.9,240.7,59.3z M253.6,47.9c1.1-1.1,1.7-2.5,1.7-4
		c0-1.6-0.6-2.9-1.7-4c-1.1-1.1-2.5-1.7-4-1.7s-2.9,0.6-4,1.7c-1.1,1.1-1.7,2.5-1.7,4c0,1.6,0.6,2.9,1.7,4c1.1,1.1,2.5,1.7,4,1.7
		S252.5,49.1,253.6,47.9z"/>
	<path class="st0" d="M315.9,27.4c2,0.9,3.7,2.4,5.1,4.5c1.4,2.2,2.1,5.1,2.1,8.7v20.1h-12.1V40.6c0-1.4-0.4-2.4-1.2-3.1
		c-0.8-0.6-1.8-1-3-1c-1.2,0-2.1,0.4-2.8,1.3c-0.7,0.9-1,2.2-1,3.9v18.9h-12.1V40.6c0-1.4-0.4-2.4-1.2-3.1c-0.8-0.6-1.8-1-3-1
		c-1.2,0-2.1,0.4-2.8,1.3c-0.7,0.9-1,2.2-1,3.9v18.9h-12.1V27.1h12.1v1.4c2.2-1.6,4.5-2.4,6.9-2.4c1.8,0,3.7,0.4,5.6,1.1
		c1.9,0.8,3.5,2,4.8,3.8c1.3-1.5,2.7-2.7,4.3-3.6c1.6-0.9,3.4-1.4,5.3-1.4C312,26.1,313.9,26.5,315.9,27.4z"/>
	<path d="M370,13.8v-0.1h4.8v47H370V22.1l-16,27.1h-1.3L336.7,22v38.7h-4.8v-47h4.8v0.1l0.4-0.1l16.3,27.6l16.3-27.6L370,13.8z"/>
	<path d="M412.1,27.1h4.5v33.5h-4.5v-6.2c-1.5,2.2-3.5,3.9-5.8,5.2c-2.3,1.3-4.9,1.9-7.6,1.9c-3.2,0-6.1-0.8-8.7-2.3
		c-2.6-1.5-4.6-3.7-6.1-6.3c-1.5-2.7-2.2-5.6-2.2-8.9c0-3.3,0.7-6.2,2.2-8.9c1.5-2.7,3.5-4.8,6.1-6.3c2.6-1.5,5.5-2.3,8.7-2.3
		c2.7,0,5.3,0.6,7.6,1.9c2.3,1.3,4.3,3,5.8,5.2V27.1z M405.7,55.3c2-1.2,3.5-2.8,4.7-4.8c1.1-2,1.7-4.2,1.7-6.7
		c0-2.5-0.6-4.7-1.7-6.7c-1.1-2-2.7-3.6-4.7-4.7c-2-1.1-4.1-1.7-6.5-1.7c-2.4,0-4.5,0.6-6.5,1.7c-2,1.2-3.5,2.7-4.7,4.7
		c-1.1,2-1.7,4.2-1.7,6.7c0,2.5,0.6,4.7,1.7,6.7s2.7,3.6,4.7,4.7c2,1.2,4.1,1.7,6.5,1.7C401.5,57.1,403.7,56.5,405.7,55.3z"/>
	<path d="M435.5,55.4c0.8,0.9,2.1,1.3,4,1.3c0.6,0,1.8-0.1,3.6-0.3v4.2c-1.9,0.2-3.4,0.3-4.5,0.3c-3,0-5.2-0.7-6.6-2.2
		c-1.4-1.5-2.1-4.1-2.1-7.9V31.2h-7.9v-4.2h7.9v-9.6l4.5-1.7v11.3h8.7v4.2h-8.7v19.4C434.3,53,434.7,54.6,435.5,55.4z"/>
	<path d="M472.7,28.7c2.5,1.6,4.5,3.8,5.9,6.5c1.4,2.7,2.1,5.6,2.1,8.8c0,0.2,0,0.8-0.1,1.8h-29.5c0.2,2.2,0.9,4.2,2,5.9
		s2.7,3.1,4.6,4.2c1.9,1,4.2,1.5,6.7,1.5c2.3,0,4.4-0.5,6.5-1.6c2-1.1,3.5-2.4,4.5-3.9L479,54c-1.5,2.3-3.5,4.1-6,5.5
		c-2.5,1.3-5.4,2-8.6,2c-3.5,0-6.6-0.8-9.3-2.3c-2.7-1.5-4.8-3.6-6.3-6.3c-1.5-2.7-2.3-5.7-2.3-9c0-3.3,0.7-6.2,2.2-8.9
		c1.5-2.7,3.5-4.8,6.2-6.3c2.7-1.5,5.7-2.3,9.1-2.3C467.2,26.3,470.1,27.1,472.7,28.7z M476.3,41.9c-0.4-3.6-1.7-6.4-3.9-8.5
		c-2.1-2.1-5-3.1-8.5-3.1c-2.5,0-4.7,0.5-6.6,1.6c-2,1.1-3.5,2.5-4.6,4.3c-1.1,1.8-1.7,3.7-1.7,5.6H476.3z"/>
</g>
</svg>
